<svg xmlns="http://www.w3.org/2000/svg" viewBox="0 0 1200 800" role="img" aria-label="青い海と水平線">
<defs>
  <linearGradient id="sky2" x1="0" y1="0" x2="0" y2="1"><stop stop-color="#173b40"/><stop offset=".56" stop-color="#7ba3a1"/><stop offset="1" stop-color="#f6efe3"/></linearGradient>
  <linearGradient id="glow2" x1="0" y1="0" x2="1" y2="1"><stop stop-color="#d4a45c" stop-opacity=".95"/><stop offset="1" stop-color="#f6efe3" stop-opacity=".08"/></linearGradient>
  <linearGradient id="water2" x1="0" y1="0" x2="0" y2="1"><stop stop-color="#7ba3a1"/><stop offset="1" stop-color="#173b40"/></linearGradient>
  <filter id="soft2"><feGaussianBlur stdDeviation="12"/></filter>
  <filter id="grain2" x="-10%" y="-10%" width="120%" height="120%"><feTurbulence type="fractalNoise" baseFrequency=".8" numOctaves="2" seed="2"/><feColorMatrix type="saturate" values="0"/><feComponentTransfer><feFuncA type="table" tableValues="0 .035"/></feComponentTransfer></filter>
</defs>
<rect width="1200" height="800" fill="url(#sky2)"/>
<circle cx="890" cy="200" r="105" fill="#d4a45c" opacity=".82"/>
<path d="M0 410 C190 370 360 420 560 390 S940 360 1200 405 V800 H0Z" fill="url(#water2)"/>
<path d="M0 500 C180 475 320 525 510 498 S840 465 1200 515" fill="none" stroke="#f6efe3" stroke-opacity=".48" stroke-width="7"/>
<path d="M0 585 C220 555 430 615 690 570 S980 550 1200 600" fill="none" stroke="#f6efe3" stroke-opacity=".22" stroke-width="4"/>
<path d="M0 395 L190 300 360 390 510 335 700 405 Z" fill="#173b40" opacity=".55"/>
<path d="M860 800 L1040 465 1200 430 1200 800Z" fill="#f6efe3" opacity=".2"/>
<rect width="1200" height="800" filter="url(#grain2)" opacity=".45"/>
<rect x="18" y="18" width="1164" height="764" rx="22" fill="none" stroke="#f6efe3" stroke-opacity=".12"/>
</svg>