<svg xmlns="http://www.w3.org/2000/svg" viewBox="0 0 1200 800" role="img" aria-label="日差しが入る教室">
<defs>
  <linearGradient id="sky8" x1="0" y1="0" x2="0" y2="1"><stop stop-color="#2c3b46"/><stop offset=".56" stop-color="#79969b"/><stop offset="1" stop-color="#f1e8d8"/></linearGradient>
  <linearGradient id="glow8" x1="0" y1="0" x2="1" y2="1"><stop stop-color="#d8b98d" stop-opacity=".95"/><stop offset="1" stop-color="#f1e8d8" stop-opacity=".08"/></linearGradient>
  <linearGradient id="water8" x1="0" y1="0" x2="0" y2="1"><stop stop-color="#79969b"/><stop offset="1" stop-color="#2c3b46"/></linearGradient>
  <filter id="soft8"><feGaussianBlur stdDeviation="12"/></filter>
  <filter id="grain8" x="-10%" y="-10%" width="120%" height="120%"><feTurbulence type="fractalNoise" baseFrequency=".8" numOctaves="2" seed="8"/><feColorMatrix type="saturate" values="0"/><feComponentTransfer><feFuncA type="table" tableValues="0 .035"/></feComponentTransfer></filter>
</defs>
<rect width="1200" height="800" fill="url(#sky8)"/>
<circle cx="765" cy="145" r="88" fill="#d8b98d" opacity=".7"/>
<path d="M0 510 C170 400 310 470 430 365 C575 250 730 480 860 390 C1010 290 1120 360 1200 320 V800 H0Z" fill="#2c3b46" opacity=".62"/>
<path d="M0 620 C210 520 390 610 570 515 C760 415 970 585 1200 470 V800 H0Z" fill="#79969b" opacity=".75"/>
<path d="M540 800 C560 660 620 560 710 500 C790 445 850 420 925 390" fill="none" stroke="#f1e8d8" stroke-opacity=".63" stroke-width="42" stroke-linecap="round"/>
<g fill="#f1e8d8" opacity=".18"><rect x="110" y="470" width="130" height="150" rx="6"/><rect x="260" y="430" width="155" height="190" rx="6"/><rect x="900" y="455" width="125" height="165" rx="6"/></g>
<rect width="1200" height="800" filter="url(#grain8)" opacity=".45"/>
<rect x="18" y="18" width="1164" height="764" rx="22" fill="none" stroke="#f1e8d8" stroke-opacity=".12"/>
</svg>